<svg viewBox="0 0 23 23" fill="none" xmlns="http://www.w3.org/2000/svg">
<g filter="url(#filter0_i_1026_1934)">
<g clip-path="url(#clip0_1026_1934)">
<rect width="23" height="23" rx="11.5" fill="#2B2727"/>
<rect width="23" height="23" rx="11.5" fill="black" fill-opacity="0.2"/>
<g filter="url(#filter1_ii_1026_1934)">
<g clip-path="url(#clip1_1026_1934)">
<rect x="2.5" y="2.5" width="18" height="18" rx="9" fill="currentColor"/>
<rect x="2.5" y="2.5" width="18" height="18" rx="9" fill="white" fill-opacity="0.2"/>
<path d="M11.5 2.5L17.8587 5.1413L13.9652 5.53261L11.5 2.5Z" fill="currentColor"/>
<path d="M11.5 2.5L17.8587 5.1413L13.9652 5.53261L11.5 2.5Z" stroke="#0D0B12" stroke-opacity="0.3" style="mix-blend-mode:multiply" stroke-width="0.5" stroke-linejoin="round"/>
<path d="M17.8586 5.1413L20.4999 11.5L17.4673 9.03478L17.8586 5.1413Z" fill="currentColor"/>
<path d="M17.8586 5.1413L20.4999 11.5L17.4673 9.03478L17.8586 5.1413Z" stroke="#0D0B12" stroke-opacity="0.3" style="mix-blend-mode:multiply" stroke-width="0.5" stroke-linejoin="round"/>
<path d="M17.8586 5.1413L20.4999 11.5L17.4673 9.03478L17.8586 5.1413Z" fill="white" fill-opacity="0.18"/>
<path d="M17.8586 5.1413L20.4999 11.5L17.4673 9.03478L17.8586 5.1413Z" stroke="#0D0B12" stroke-opacity="0.3" style="mix-blend-mode:multiply" stroke-width="0.5" stroke-linejoin="round"/>
<path d="M20.4999 11.5L17.8586 17.8587L17.4673 13.9652L20.4999 11.5Z" fill="currentColor"/>
<path d="M20.4999 11.5L17.8586 17.8587L17.4673 13.9652L20.4999 11.5Z" stroke="#0D0B12" stroke-opacity="0.3" style="mix-blend-mode:multiply" stroke-width="0.5" stroke-linejoin="round"/>
<path d="M20.4999 11.5L17.8586 17.8587L17.4673 13.9652L20.4999 11.5Z" fill="white" fill-opacity="0.3"/>
<path d="M20.4999 11.5L17.8586 17.8587L17.4673 13.9652L20.4999 11.5Z" stroke="#0D0B12" stroke-opacity="0.3" style="mix-blend-mode:multiply" stroke-width="0.5" stroke-linejoin="round"/>
<path d="M17.8587 17.8587L11.5 20.5L13.9652 17.4674L17.8587 17.8587Z" fill="currentColor"/>
<path d="M17.8587 17.8587L11.5 20.5L13.9652 17.4674L17.8587 17.8587Z" stroke="#0D0B12" stroke-opacity="0.3" style="mix-blend-mode:multiply" stroke-width="0.5" stroke-linejoin="round"/>
<path d="M17.8587 17.8587L11.5 20.5L13.9652 17.4674L17.8587 17.8587Z" fill="white" fill-opacity="0.4"/>
<path d="M17.8587 17.8587L11.5 20.5L13.9652 17.4674L17.8587 17.8587Z" stroke="#0D0B12" stroke-opacity="0.3" style="mix-blend-mode:multiply" stroke-width="0.5" stroke-linejoin="round"/>
<path d="M11.4998 20.5L5.14111 17.8587L9.03459 17.4674L11.4998 20.5Z" fill="currentColor"/>
<path d="M11.4998 20.5L5.14111 17.8587L9.03459 17.4674L11.4998 20.5Z" stroke="#0D0B12" stroke-opacity="0.3" style="mix-blend-mode:multiply" stroke-width="0.5" stroke-linejoin="round"/>
<path d="M11.4998 20.5L5.14111 17.8587L9.03459 17.4674L11.4998 20.5Z" fill="white" fill-opacity="0.34"/>
<path d="M11.4998 20.5L5.14111 17.8587L9.03459 17.4674L11.4998 20.5Z" stroke="#0D0B12" stroke-opacity="0.3" style="mix-blend-mode:multiply" stroke-width="0.5" stroke-linejoin="round"/>
<path d="M5.1413 17.8587L2.5 11.5L5.53261 13.9652L5.1413 17.8587Z" fill="currentColor"/>
<path d="M5.1413 17.8587L2.5 11.5L5.53261 13.9652L5.1413 17.8587Z" stroke="#0D0B12" stroke-opacity="0.3" style="mix-blend-mode:multiply" stroke-width="0.5" stroke-linejoin="round"/>
<path d="M5.1413 17.8587L2.5 11.5L5.53261 13.9652L5.1413 17.8587Z" fill="white" fill-opacity="0.2"/>
<path d="M5.1413 17.8587L2.5 11.5L5.53261 13.9652L5.1413 17.8587Z" stroke="#0D0B12" stroke-opacity="0.3" style="mix-blend-mode:multiply" stroke-width="0.5" stroke-linejoin="round"/>
<path d="M2.5 11.5L5.1413 5.1413L5.53261 9.03478L2.5 11.5Z" fill="currentColor"/>
<path d="M2.5 11.5L5.1413 5.1413L5.53261 9.03478L2.5 11.5Z" stroke="#0D0B12" stroke-opacity="0.3" style="mix-blend-mode:multiply" stroke-width="0.5" stroke-linejoin="round"/>
<path d="M2.5 11.5L5.1413 5.1413L5.53261 9.03478L2.5 11.5Z" fill="white" fill-opacity="0.06"/>
<path d="M2.5 11.5L5.1413 5.1413L5.53261 9.03478L2.5 11.5Z" stroke="#0D0B12" stroke-opacity="0.3" style="mix-blend-mode:multiply" stroke-width="0.5" stroke-linejoin="round"/>
<path d="M5.14111 5.1413L11.4998 2.5L9.03459 5.53261L5.14111 5.1413Z" fill="currentColor"/>
<path d="M5.14111 5.1413L11.4998 2.5L9.03459 5.53261L5.14111 5.1413Z" stroke="#0D0B12" stroke-opacity="0.3" style="mix-blend-mode:multiply" stroke-width="0.5" stroke-linejoin="round"/>
<path d="M5.14111 5.1413L11.4998 2.5L9.03459 5.53261L5.14111 5.1413Z" fill="black" fill-opacity="0.1" style="mix-blend-mode:multiply"/>
<path d="M5.14111 5.1413L11.4998 2.5L9.03459 5.53261L5.14111 5.1413Z" stroke="#0D0B12" stroke-opacity="0.3" style="mix-blend-mode:multiply" stroke-width="0.5" stroke-linejoin="round"/>
<path d="M11.4999 2.5L13.9651 5.53261L13.0651 7.70435L9.03467 5.53261L11.4999 2.5Z" fill="currentColor"/>
<path d="M11.4999 2.5L13.9651 5.53261L13.0651 7.70435L9.03467 5.53261L11.4999 2.5Z" stroke="#0D0B12" stroke-opacity="0.3" style="mix-blend-mode:multiply" stroke-width="0.5" stroke-linejoin="round"/>
<path d="M11.4999 2.5L13.9651 5.53261L13.0651 7.70435L9.03467 5.53261L11.4999 2.5Z" fill="white" fill-opacity="0.28"/>
<path d="M11.4999 2.5L13.9651 5.53261L13.0651 7.70435L9.03467 5.53261L11.4999 2.5Z" stroke="#0D0B12" stroke-opacity="0.3" style="mix-blend-mode:multiply" stroke-width="0.5" stroke-linejoin="round"/>
<path d="M17.8588 5.1413L17.4675 9.03478L15.2958 9.93478L13.9653 5.53261L17.8588 5.1413Z" fill="currentColor"/>
<path d="M17.8588 5.1413L17.4675 9.03478L15.2958 9.93478L13.9653 5.53261L17.8588 5.1413Z" stroke="#0D0B12" stroke-opacity="0.3" style="mix-blend-mode:multiply" stroke-width="0.5" stroke-linejoin="round"/>
<path d="M17.8588 5.1413L17.4675 9.03478L15.2958 9.93478L13.9653 5.53261L17.8588 5.1413Z" fill="white" fill-opacity="0.14"/>
<path d="M17.8588 5.1413L17.4675 9.03478L15.2958 9.93478L13.9653 5.53261L17.8588 5.1413Z" stroke="#0D0B12" stroke-opacity="0.3" style="mix-blend-mode:multiply" stroke-width="0.5" stroke-linejoin="round"/>
<path d="M20.4998 11.5L17.4671 13.9652L15.2954 13.0652L17.4671 9.03478L20.4998 11.5Z" fill="currentColor"/>
<path d="M20.4998 11.5L17.4671 13.9652L15.2954 13.0652L17.4671 9.03478L20.4998 11.5Z" stroke="#0D0B12" stroke-opacity="0.3" style="mix-blend-mode:multiply" stroke-width="0.5" stroke-linejoin="round"/>
<path d="M20.4998 11.5L17.4671 13.9652L15.2954 13.0652L17.4671 9.03478L20.4998 11.5Z" fill="black" fill-opacity="0.04" style="mix-blend-mode:multiply"/>
<path d="M20.4998 11.5L17.4671 13.9652L15.2954 13.0652L17.4671 9.03478L20.4998 11.5Z" stroke="#0D0B12" stroke-opacity="0.3" style="mix-blend-mode:multiply" stroke-width="0.5" stroke-linejoin="round"/>
<path d="M17.8589 17.8587L13.9654 17.4674L13.0654 15.2957L17.4676 13.9652L17.8589 17.8587Z" fill="currentColor"/>
<path d="M17.8589 17.8587L13.9654 17.4674L13.0654 15.2957L17.4676 13.9652L17.8589 17.8587Z" stroke="#0D0B12" stroke-opacity="0.3" style="mix-blend-mode:multiply" stroke-width="0.5" stroke-linejoin="round"/>
<path d="M17.8589 17.8587L13.9654 17.4674L13.0654 15.2957L17.4676 13.9652L17.8589 17.8587Z" fill="black" fill-opacity="0.16" style="mix-blend-mode:multiply"/>
<path d="M17.8589 17.8587L13.9654 17.4674L13.0654 15.2957L17.4676 13.9652L17.8589 17.8587Z" stroke="#0D0B12" stroke-opacity="0.3" style="mix-blend-mode:multiply" stroke-width="0.5" stroke-linejoin="round"/>
<path d="M11.4999 20.5L9.03467 17.4674L9.93467 15.2957L13.9651 17.4674L11.4999 20.5Z" fill="currentColor"/>
<path d="M11.4999 20.5L9.03467 17.4674L9.93467 15.2957L13.9651 17.4674L11.4999 20.5Z" stroke="#0D0B12" stroke-opacity="0.3" style="mix-blend-mode:multiply" stroke-width="0.5" stroke-linejoin="round"/>
<path d="M11.4999 20.5L9.03467 17.4674L9.93467 15.2957L13.9651 17.4674L11.4999 20.5Z" fill="black" fill-opacity="0.22" style="mix-blend-mode:multiply"/>
<path d="M11.4999 20.5L9.03467 17.4674L9.93467 15.2957L13.9651 17.4674L11.4999 20.5Z" stroke="#0D0B12" stroke-opacity="0.3" style="mix-blend-mode:multiply" stroke-width="0.5" stroke-linejoin="round"/>
<path d="M5.14111 17.8587L5.53242 13.9652L7.70416 13.0652L9.03459 17.4674L5.14111 17.8587Z" fill="currentColor"/>
<path d="M5.14111 17.8587L5.53242 13.9652L7.70416 13.0652L9.03459 17.4674L5.14111 17.8587Z" stroke="#0D0B12" stroke-opacity="0.3" style="mix-blend-mode:multiply" stroke-width="0.5" stroke-linejoin="round"/>
<path d="M5.14111 17.8587L5.53242 13.9652L7.70416 13.0652L9.03459 17.4674L5.14111 17.8587Z" fill="black" fill-opacity="0.12" style="mix-blend-mode:multiply"/>
<path d="M5.14111 17.8587L5.53242 13.9652L7.70416 13.0652L9.03459 17.4674L5.14111 17.8587Z" stroke="#0D0B12" stroke-opacity="0.3" style="mix-blend-mode:multiply" stroke-width="0.5" stroke-linejoin="round"/>
<path d="M2.5 11.5L5.53261 9.03478L7.70435 9.93478L5.53261 13.9652L2.5 11.5Z" fill="currentColor"/>
<path d="M2.5 11.5L5.53261 9.03478L7.70435 9.93478L5.53261 13.9652L2.5 11.5Z" stroke="#0D0B12" stroke-opacity="0.3" style="mix-blend-mode:multiply" stroke-width="0.5" stroke-linejoin="round"/>
<path d="M2.5 11.5L5.53261 9.03478L7.70435 9.93478L5.53261 13.9652L2.5 11.5Z" fill="white" fill-opacity="0.04"/>
<path d="M2.5 11.5L5.53261 9.03478L7.70435 9.93478L5.53261 13.9652L2.5 11.5Z" stroke="#0D0B12" stroke-opacity="0.3" style="mix-blend-mode:multiply" stroke-width="0.5" stroke-linejoin="round"/>
<path d="M5.14111 5.1413L9.03459 5.53261L9.93459 7.70435L5.53242 9.03478L5.14111 5.1413Z" fill="currentColor"/>
<path d="M5.14111 5.1413L9.03459 5.53261L9.93459 7.70435L5.53242 9.03478L5.14111 5.1413Z" stroke="#0D0B12" stroke-opacity="0.3" style="mix-blend-mode:multiply" stroke-width="0.5" stroke-linejoin="round"/>
<path d="M5.14111 5.1413L9.03459 5.53261L9.93459 7.70435L5.53242 9.03478L5.14111 5.1413Z" fill="white" fill-opacity="0.2"/>
<path d="M5.14111 5.1413L9.03459 5.53261L9.93459 7.70435L5.53242 9.03478L5.14111 5.1413Z" stroke="#0D0B12" stroke-opacity="0.3" style="mix-blend-mode:multiply" stroke-width="0.5" stroke-linejoin="round"/>
<path d="M13.0655 7.70435L15.2959 9.93478V13.0652L13.0655 15.2957H9.93502L7.70459 13.0652V9.93478L9.93502 7.70435H13.0655Z" fill="currentColor"/>
<path d="M13.0655 7.70435L15.2959 9.93478V13.0652L13.0655 15.2957H9.93502L7.70459 13.0652V9.93478L9.93502 7.70435H13.0655Z" stroke="#0D0B12" stroke-opacity="0.3" style="mix-blend-mode:multiply" stroke-width="0.5" stroke-linejoin="round"/>
<path d="M13.0655 7.70435L15.2959 9.93478V13.0652L13.0655 15.2957H9.93502L7.70459 13.0652V9.93478L9.93502 7.70435H13.0655Z" fill="white" fill-opacity="0.34"/>
<path d="M13.0655 7.70435L15.2959 9.93478V13.0652L13.0655 15.2957H9.93502L7.70459 13.0652V9.93478L9.93502 7.70435H13.0655Z" stroke="#0D0B12" stroke-opacity="0.3" style="mix-blend-mode:multiply" stroke-width="0.5" stroke-linejoin="round"/>
</g>
<rect x="2.5" y="2.5" width="18" height="18" rx="9" stroke="url(#paint0_linear_1026_1934)"/>
</g>
<g style="mix-blend-mode:overlay" opacity="0.5" filter="url(#filter2_f_1026_1934)">
<g clip-path="url(#clip2_1026_1934)">
<rect x="2.5" y="3" width="18" height="18" rx="9" fill="currentColor"/>
<rect x="2.5" y="3" width="18" height="18" rx="9" fill="white" fill-opacity="0.2"/>
<path d="M11.5 3L17.8587 5.6413L13.9652 6.03261L11.5 3Z" fill="currentColor"/>
<path d="M17.8586 5.6413L20.4999 12L17.4673 9.53478L17.8586 5.6413Z" fill="currentColor"/>
<path d="M17.8586 5.6413L20.4999 12L17.4673 9.53478L17.8586 5.6413Z" fill="white" fill-opacity="0.18"/>
<path d="M20.4999 12L17.8586 18.3587L17.4673 14.4652L20.4999 12Z" fill="currentColor"/>
<path d="M20.4999 12L17.8586 18.3587L17.4673 14.4652L20.4999 12Z" fill="white" fill-opacity="0.3"/>
<path d="M17.8587 18.3587L11.5 21L13.9652 17.9674L17.8587 18.3587Z" fill="currentColor"/>
<path d="M17.8587 18.3587L11.5 21L13.9652 17.9674L17.8587 18.3587Z" fill="white" fill-opacity="0.4"/>
<path d="M11.4998 21L5.14111 18.3587L9.03459 17.9674L11.4998 21Z" fill="currentColor"/>
<path d="M11.4998 21L5.14111 18.3587L9.03459 17.9674L11.4998 21Z" fill="white" fill-opacity="0.34"/>
<path d="M5.1413 18.3587L2.5 12L5.53261 14.4652L5.1413 18.3587Z" fill="currentColor"/>
<path d="M5.1413 18.3587L2.5 12L5.53261 14.4652L5.1413 18.3587Z" fill="white" fill-opacity="0.2"/>
<path d="M2.5 12L5.1413 5.6413L5.53261 9.53478L2.5 12Z" fill="currentColor"/>
<path d="M2.5 12L5.1413 5.6413L5.53261 9.53478L2.5 12Z" fill="white" fill-opacity="0.06"/>
<path d="M5.14111 5.6413L11.4998 3L9.03459 6.03261L5.14111 5.6413Z" fill="currentColor"/>
<path d="M5.14111 5.6413L11.4998 3L9.03459 6.03261L5.14111 5.6413Z" fill="black" fill-opacity="0.1" style="mix-blend-mode:multiply"/>
<path d="M11.4999 3L13.9651 6.03261L13.0651 8.20435L9.03467 6.03261L11.4999 3Z" fill="currentColor"/>
<path d="M11.4999 3L13.9651 6.03261L13.0651 8.20435L9.03467 6.03261L11.4999 3Z" fill="white" fill-opacity="0.28"/>
<path d="M17.8588 5.6413L17.4675 9.53478L15.2958 10.4348L13.9653 6.03261L17.8588 5.6413Z" fill="currentColor"/>
<path d="M17.8588 5.6413L17.4675 9.53478L15.2958 10.4348L13.9653 6.03261L17.8588 5.6413Z" fill="white" fill-opacity="0.14"/>
<path d="M20.4998 12L17.4671 14.4652L15.2954 13.5652L17.4671 9.53478L20.4998 12Z" fill="currentColor"/>
<path d="M20.4998 12L17.4671 14.4652L15.2954 13.5652L17.4671 9.53478L20.4998 12Z" fill="black" fill-opacity="0.04" style="mix-blend-mode:multiply"/>
<path d="M17.8589 18.3587L13.9654 17.9674L13.0654 15.7957L17.4676 14.4652L17.8589 18.3587Z" fill="currentColor"/>
<path d="M17.8589 18.3587L13.9654 17.9674L13.0654 15.7957L17.4676 14.4652L17.8589 18.3587Z" fill="black" fill-opacity="0.16" style="mix-blend-mode:multiply"/>
<path d="M11.4999 21L9.03467 17.9674L9.93467 15.7957L13.9651 17.9674L11.4999 21Z" fill="currentColor"/>
<path d="M5.14111 18.3587L5.53242 14.4652L7.70416 13.5652L9.03459 17.9674L5.14111 18.3587Z" fill="currentColor"/>
<path d="M5.14111 18.3587L5.53242 14.4652L7.70416 13.5652L9.03459 17.9674L5.14111 18.3587Z" fill="black" fill-opacity="0.12" style="mix-blend-mode:multiply"/>
<path d="M2.5 12L5.53261 9.53478L7.70435 10.4348L5.53261 14.4652L2.5 12Z" fill="currentColor"/>
<path d="M2.5 12L5.53261 9.53478L7.70435 10.4348L5.53261 14.4652L2.5 12Z" fill="white" fill-opacity="0.04"/>
<path d="M5.14111 5.6413L9.03459 6.03261L9.93459 8.20435L5.53242 9.53478L5.14111 5.6413Z" fill="currentColor"/>
<path d="M5.14111 5.6413L9.03459 6.03261L9.93459 8.20435L5.53242 9.53478L5.14111 5.6413Z" fill="white" fill-opacity="0.2"/>
<path d="M13.0655 8.20435L15.2959 10.4348V13.5652L13.0655 15.7957H9.93502L7.70459 13.5652V10.4348L9.93502 8.20435H13.0655Z" fill="currentColor"/>
<path d="M13.0655 8.20435L15.2959 10.4348V13.5652L13.0655 15.7957H9.93502L7.70459 13.5652V10.4348L9.93502 8.20435H13.0655Z" fill="white" fill-opacity="0.34"/>
</g>
</g>
<rect width="23" height="23" fill="url(#paint1_radial_1026_1934)" style="mix-blend-mode:screen"/>
</g>
<rect x="1" y="1" width="21" height="21" rx="10.5" stroke="url(#paint2_linear_1026_1934)" stroke-width="2"/>
<rect x="1" y="1" width="21" height="21" rx="10.5" stroke="black" stroke-opacity="0.2" stroke-width="2"/>
</g>
<defs>
<filter id="filter0_i_1026_1934" x="0" y="0" width="23" height="25" filterUnits="userSpaceOnUse" color-interpolation-filters="sRGB">
<feFlood flood-opacity="0" result="BackgroundImageFix"/>
<feBlend mode="normal" in="SourceGraphic" in2="BackgroundImageFix" result="shape"/>
<feColorMatrix in="SourceAlpha" type="matrix" values="0 0 0 0 0 0 0 0 0 0 0 0 0 0 0 0 0 0 127 0" result="hardAlpha"/>
<feOffset dy="2"/>
<feGaussianBlur stdDeviation="2"/>
<feComposite in2="hardAlpha" operator="arithmetic" k2="-1" k3="1"/>
<feColorMatrix type="matrix" values="0 0 0 0 0.0313726 0 0 0 0 0.027451 0 0 0 0 0.0470588 0 0 0 0.8 0"/>
<feBlend mode="multiply" in2="shape" result="effect1_innerShadow_1026_1934"/>
</filter>
<filter id="filter1_ii_1026_1934" x="2" y="-2" width="19" height="27" filterUnits="userSpaceOnUse" color-interpolation-filters="sRGB">
<feFlood flood-opacity="0" result="BackgroundImageFix"/>
<feBlend mode="normal" in="SourceGraphic" in2="BackgroundImageFix" result="shape"/>
<feColorMatrix in="SourceAlpha" type="matrix" values="0 0 0 0 0 0 0 0 0 0 0 0 0 0 0 0 0 0 127 0" result="hardAlpha"/>
<feOffset dy="-4"/>
<feGaussianBlur stdDeviation="2"/>
<feComposite in2="hardAlpha" operator="arithmetic" k2="-1" k3="1"/>
<feColorMatrix type="matrix" values="0 0 0 0 0 0 0 0 0 0 0 0 0 0 0 0 0 0 0.35 0"/>
<feBlend mode="multiply" in2="shape" result="effect1_innerShadow_1026_1934"/>
<feColorMatrix in="SourceAlpha" type="matrix" values="0 0 0 0 0 0 0 0 0 0 0 0 0 0 0 0 0 0 127 0" result="hardAlpha"/>
<feMorphology radius="4" operator="erode" in="SourceAlpha" result="effect2_innerShadow_1026_1934"/>
<feOffset dy="4"/>
<feGaussianBlur stdDeviation="2"/>
<feComposite in2="hardAlpha" operator="arithmetic" k2="-1" k3="1"/>
<feColorMatrix type="matrix" values="0 0 0 0 1 0 0 0 0 1 0 0 0 0 1 0 0 0 0.25 0"/>
<feBlend mode="overlay" in2="effect1_innerShadow_1026_1934" result="effect2_innerShadow_1026_1934"/>
</filter>
<filter id="filter2_f_1026_1934" x="-5.5" y="-5" width="34" height="34" filterUnits="userSpaceOnUse" color-interpolation-filters="sRGB">
<feFlood flood-opacity="0" result="BackgroundImageFix"/>
<feBlend mode="normal" in="SourceGraphic" in2="BackgroundImageFix" result="shape"/>
<feGaussianBlur stdDeviation="4" result="effect1_foregroundBlur_1026_1934"/>
</filter>
<linearGradient id="paint0_linear_1026_1934" x1="11.5" y1="2.5" x2="11.5" y2="20.5" gradientUnits="userSpaceOnUse">
<stop stop-color="#C6A24E"/>
<stop offset="1" stop-color="#55411D"/>
</linearGradient>
<radialGradient id="paint1_radial_1026_1934" cx="0" cy="0" r="1" gradientUnits="userSpaceOnUse" gradientTransform="translate(12 -5.5) rotate(90) scale(18)">
<stop offset="0.8" stop-color="white" stop-opacity="0"/>
<stop offset="0.998441" stop-color="white" stop-opacity="0.3"/>
<stop offset="1" stop-color="white" stop-opacity="0"/>
</radialGradient>
<linearGradient id="paint2_linear_1026_1934" x1="11.5" y1="0" x2="11.5" y2="23" gradientUnits="userSpaceOnUse">
<stop stop-color="#FFDA9C" stop-opacity="0.75"/>
<stop offset="0.510417" stop-color="#F9DA84"/>
<stop offset="1" stop-color="#856632" stop-opacity="0.75"/>
</linearGradient>
<clipPath id="clip0_1026_1934">
<rect width="23" height="23" rx="11.5" fill="white"/>
</clipPath>
<clipPath id="clip1_1026_1934">
<rect x="2.5" y="2.5" width="18" height="18" rx="9" fill="white"/>
</clipPath>
<clipPath id="clip2_1026_1934">
<rect x="2.5" y="3" width="18" height="18" rx="9" fill="white"/>
</clipPath>
</defs>
</svg>
